<?xml version="1.0" encoding="utf-8"?>
<!-- Generator: Adobe Illustrator 16.0.0, SVG Export Plug-In . SVG Version: 6.00 Build 0)  -->
<!DOCTYPE svg PUBLIC "-//W3C//DTD SVG 1.1//EN" "http://www.w3.org/Graphics/SVG/1.1/DTD/svg11.dtd">
<svg version="1.1" id="Layer_1" xmlns="http://www.w3.org/2000/svg" xmlns:xlink="http://www.w3.org/1999/xlink" x="0px" y="0px"
	 width="182px" height="91px" viewBox="0 0 182 91" enable-background="new 0 0 182 91" xml:space="preserve">
<path fill-rule="evenodd" clip-rule="evenodd" fill="#FFFFFF" d="M57.928,79.125v2.036h-0.611v-2.036H57.928z M48.967,80.143
	c0,0.611,0,0.815-0.814,1.426v-2.443C48.967,79.532,48.967,79.939,48.967,80.143z M113.928,78.921v7.331h-0.406v-7.331H113.928z
	 M90.307,78.921v6.924c-0.203,0.204-0.408,0.407-0.814,0.407v-7.331H90.307z M67.703,78.921v6.924
	c-0.205,0.204-0.408,0.407-0.816,0.407v-7.331H67.703z M180.52,78.514v7.942h-40.117v-7.942H180.52z M40.007,78.514v7.942H1.723
	v-7.942H40.007z M124.518,81.568v-4.48h2.852v10.793h-2.852c-0.611-1.425-1.018-2.851-1.629-4.276
	c-0.203,0.204-0.203,0.611-0.203,4.276h-2.852V77.088h1.223C123.703,77.088,122.686,78.921,124.518,81.568z M107.82,77.088v10.793
	h-3.463V77.088H107.82z M102.729,77.088v2.24h-2.037v8.553h-3.258v-8.553h-2.037v-2.24H102.729z M77.68,77.088
	c0.205,1.223,0.408,2.444,0.611,3.87l0.408,0.407c0.406-1.426,0.611-2.852,0.814-4.277h4.275v10.793h-3.055v-6.313
	c-0.406,2.036-0.814,4.073-1.018,6.313h-2.24c-0.203-2.036-0.611-4.072-1.018-6.108c-0.203,0.203-0.203,0.61-0.203,6.108h-2.852
	V77.088H77.68z M61.186,80.143c0,1.019,0.203,1.019-1.221,2.24c0.406,0.204,0.814,0.611,1.221,1.019v4.479h-3.055v-4.684
	c-0.203,0-0.611-0.203-0.814-0.203c-0.203,0.203-0.203,0.61-0.203,4.887H53.65V77.088h1.834
	C58.131,77.088,61.186,76.478,61.186,80.143z M48.356,77.088c3.666,0.408,3.462,1.019,3.462,3.259c0,2.443-0.203,3.258-3.87,3.258
	v4.276h-3.258V77.088H48.356z M136.736,78.514v1.833h-3.055v-1.426c-0.203-0.203,0-0.203-0.611-0.203
	c-0.406,0-0.611,0.407-0.611,0.814c0,2.24,4.686,1.426,4.686,5.498c0,2.443-2.037,3.055-3.869,3.055
	c-0.611,0-3.666-0.407-3.666-1.833v-2.24h3.055v2.24c0.203,0,0.406,0.204,1.221,0v-1.833c-2.85-2.443-4.479-1.832-4.479-4.684
	c0-2.443,2.035-2.851,3.664-2.851C133.479,76.885,136.736,77.088,136.736,78.514z M117.797,82.383c0,3.055,0.205,5.702-4.072,5.702
	c-2.035,0-3.869-0.814-3.869-3.258v-4.685c0-2.443,1.834-3.258,3.869-3.258C118.205,76.885,117.797,79.939,117.797,82.383z
	 M93.768,82.383c0,3.055,0.205,5.702-3.869,5.702c-0.814,0-3.869-0.204-3.869-2.24v-6.72c0.611-1.833,2.443-2.24,3.869-2.24
	C94.176,76.885,93.768,79.939,93.768,82.383z M71.164,82.587c0,2.851,0.408,5.498-3.869,5.498c-0.814,0-3.869-0.407-3.869-2.24
	v-6.517c0-2.036,2.852-2.443,3.869-2.443C71.572,76.885,71.164,79.735,71.164,82.587z M24.327,28.825
	c3.055,0.407,6.109,0.204,6.109,4.073v27.695c-0.204,3.055-2.647,4.276-5.091,4.276h-7.738V28.825H24.327z M33.287,19.458
	c10.59,0.611,15.681,5.295,15.681,14.051v28.307c-0.204,1.019-0.407,1.833-0.407,2.647c-0.204,1.629-0.611,3.869-2.443,5.702
	c-2.852,2.851-11.812,4.072-16.088,4.072H1.519V19.458H33.287z M178.891,19.051v10.793h-25.252v10.793h24.029v10.182H153.23v12.219
	h27.086V73.83h-46.432V19.051H178.891z M179.094,6.629v7.738H133.07l-15.68-7.738H179.094z M63.426,6.629l-15.884,7.738H1.723V6.629
	H63.426z M91.324,36.563l5.498-34.211l29.936,15.477v56.205h-20.16V37.379l-8.146,36.655H84.197l-8.756-35.841v35.841H55.279V18.439
	L85.215,2.353L91.324,36.563z"/>
</svg>
